<svg width="24" height="24" viewBox="0 0 24 24" fill="none" xmlns="http://www.w3.org/2000/svg">
<g id="account_circle">
<path id="Vector" d="M6.01885 17.2903C6.86885 16.6596 7.79485 16.1615 8.79685 15.796C9.79868 15.4307 10.865 15.248 11.9958 15.248C13.1267 15.248 14.193 15.4307 15.1948 15.796C16.1969 16.1615 17.1229 16.6596 17.9728 17.2903C18.5945 16.607 19.0871 15.816 19.4506 14.9173C19.8141 14.0186 19.9958 13.0455 19.9958 11.998C19.9958 9.78138 19.2167 7.89388 17.6583 6.33555C16.1 4.77721 14.2125 3.99805 11.9958 3.99805C9.77918 3.99805 7.89168 4.77721 6.33335 6.33555C4.77502 7.89388 3.99585 9.78138 3.99585 11.998C3.99585 13.0455 4.1776 14.0186 4.5411 14.9173C4.9046 15.816 5.39718 16.607 6.01885 17.2903ZM11.9961 12.748C11.0831 12.748 10.3132 12.4347 9.68635 11.808C9.05935 11.1812 8.74585 10.4113 8.74585 9.4983C8.74585 8.5853 9.05918 7.81538 9.68585 7.18855C10.3127 6.56155 11.0826 6.24805 11.9956 6.24805C12.9086 6.24805 13.6785 6.56138 14.3054 7.18805C14.9324 7.81488 15.2458 8.5848 15.2458 9.4978C15.2458 10.4108 14.9325 11.1807 14.3059 11.8075C13.679 12.4345 12.9091 12.748 11.9961 12.748ZM11.9958 21.498C10.6767 21.498 9.43918 21.25 8.28335 20.7538C7.12752 20.2576 6.1221 19.582 5.2671 18.7268C4.41193 17.8718 3.73627 16.8664 3.2401 15.7105C2.74393 14.5547 2.49585 13.3172 2.49585 11.998C2.49585 10.6789 2.74393 9.44138 3.2401 8.28555C3.73627 7.12971 4.41193 6.1243 5.2671 5.2693C6.1221 4.41413 7.12752 3.73846 8.28335 3.2423C9.43918 2.74613 10.6767 2.49805 11.9958 2.49805C13.315 2.49805 14.5525 2.74613 15.7084 3.2423C16.8642 3.73846 17.8696 4.41413 18.7246 5.2693C19.5798 6.1243 20.2554 7.12971 20.7516 8.28555C21.2478 9.44138 21.4958 10.6789 21.4958 11.998C21.4958 13.3172 21.2478 14.5547 20.7516 15.7105C20.2554 16.8664 19.5798 17.8718 18.7246 18.7268C17.8696 19.582 16.8642 20.2576 15.7084 20.7538C14.5525 21.25 13.315 21.498 11.9958 21.498ZM11.9958 19.998C12.8983 19.998 13.7685 19.8529 14.6063 19.5625C15.4442 19.272 16.1881 18.866 16.8381 18.3443C16.1881 17.8416 15.4539 17.45 14.6354 17.1693C13.8167 16.8885 12.9368 16.748 11.9958 16.748C11.0548 16.748 10.1734 16.8868 9.3516 17.1643C8.52977 17.442 7.7971 17.8353 7.1536 18.3443C7.8036 18.866 8.54752 19.272 9.38535 19.5625C10.2232 19.8529 11.0933 19.998 11.9958 19.998ZM11.9958 11.248C12.4934 11.248 12.9093 11.0807 13.2438 10.746C13.5785 10.4115 13.7458 9.99555 13.7458 9.49805C13.7458 9.00055 13.5785 8.58455 13.2438 8.25005C12.9093 7.91538 12.4934 7.74805 11.9958 7.74805C11.4984 7.74805 11.0823 7.91538 10.7478 8.25005C10.4132 8.58455 10.2458 9.00055 10.2458 9.49805C10.2458 9.99555 10.4132 10.4115 10.7478 10.746C11.0823 11.0807 11.4984 11.248 11.9958 11.248Z" fill="white"/>
</g>
</svg>
