<svg xmlns="http://www.w3.org/2000/svg" width="24" height="24" viewBox="0 0 24 24" fill="none">
  <mask id="mask0_550_10388" style="mask-type:alpha" maskUnits="userSpaceOnUse" x="0" y="0" width="24" height="24">
    <rect width="24" height="24" fill="#D9D9D9"/>
  </mask>
  <g mask="url(#mask0_550_10388)">
    <path d="M11.25 22.25V20.5192C9.16672 20.3051 7.41288 19.4858 5.98855 18.0615C4.56422 16.6371 3.74497 14.8833 3.5308 12.8H1.80005V11.3H3.5308C3.74497 9.21664 4.56422 7.46281 5.98855 6.03848C7.41288 4.61414 9.16672 3.79489 11.25 3.58073V1.84998H12.75V3.58073C14.8334 3.79489 16.5872 4.61414 18.0115 6.03848C19.4359 7.46281 20.2551 9.21664 20.4693 11.3H22.2V12.8H20.4693C20.2551 14.8833 19.4359 16.6371 18.0115 18.0615C16.5872 19.4858 14.8334 20.3051 12.75 20.5192V22.25H11.25ZM12 19.05C13.9334 19.05 15.5834 18.3666 16.95 17C18.3167 15.6333 19 13.9833 19 12.05C19 10.1166 18.3167 8.46664 16.95 7.09998C15.5834 5.73331 13.9334 5.04998 12 5.04998C10.0667 5.04998 8.41672 5.73331 7.05005 7.09998C5.68338 8.46664 5.00005 10.1166 5.00005 12.05C5.00005 13.9833 5.68338 15.6333 7.05005 17C8.41672 18.3666 10.0667 19.05 12 19.05Z" fill="black"/>
  </g>
</svg>