<svg xmlns="http://www.w3.org/2000/svg" width="20" height="20" viewBox="0 0 20 20" fill="none">
  <mask id="mask0_4287_580" style="mask-type:alpha" maskUnits="userSpaceOnUse" x="0" y="0" width="20" height="20">
    <rect width="20" height="20" fill="#D9D9D9"/>
  </mask>
  <g mask="url(#mask0_4287_580)">
    <path d="M9.99996 17.9244C7.90274 16.1072 6.3301 14.416 5.28204 12.8509C4.23399 11.2856 3.70996 9.84859 3.70996 8.53984C3.70996 6.61678 4.33197 5.05991 5.576 3.86921C6.82017 2.67852 8.29482 2.08317 9.99996 2.08317H10.3364C10.4486 2.08317 10.5609 2.09171 10.6731 2.1088V3.37171C10.5609 3.35463 10.4515 3.34262 10.345 3.33567C10.2383 3.32873 10.1233 3.32525 9.99996 3.32525C8.57052 3.32525 7.37316 3.81456 6.40788 4.79317C5.4426 5.77178 4.95996 7.02067 4.95996 8.53984C4.95996 9.54734 5.39239 10.7212 6.25725 12.0615C7.12211 13.4018 8.36968 14.8016 9.99996 16.2611C11.6195 14.8123 12.8604 13.4245 13.7227 12.0975C14.5849 10.7706 15.024 9.60345 15.04 8.59609V8.49338H16.29V8.59609C16.274 9.89942 15.7433 11.3283 14.6979 12.8828C13.6525 14.4373 12.0865 16.1179 9.99996 17.9244ZM10.0014 9.88755C10.416 9.88755 10.7704 9.73991 11.0648 9.44463C11.3592 9.14935 11.5064 8.79442 11.5064 8.37984C11.5064 7.96525 11.3588 7.61074 11.0635 7.3163C10.7682 7.02199 10.4132 6.87484 9.9985 6.87484C9.58392 6.87484 9.22948 7.02248 8.93517 7.31775C8.64073 7.61303 8.4935 7.96803 8.4935 8.38275C8.4935 8.79734 8.64114 9.15178 8.93642 9.44609C9.2317 9.74039 9.5867 9.88755 10.0014 9.88755ZM15 6.6665H16.25V4.1665H18.75V2.9165H16.25V0.416504H15V2.9165H12.5V4.1665H15V6.6665Z" fill="black"/>
  </g>
</svg>