<svg width="24" height="24" viewBox="0 0 24 24" fill="none" xmlns="http://www.w3.org/2000/svg">
<g id="volume_up">
<mask id="mask0_3980_188" style="mask-type:alpha" maskUnits="userSpaceOnUse" x="-1" y="0" width="25" height="25">
<rect id="Bounding box" x="-0.000976562" y="0.0012207" width="24" height="24" fill="#D9D9D9"/>
</mask>
<g mask="url(#mask0_3980_188)">
<path id="volume_up_2" d="M14.0373 20.1108V18.5608C15.4797 18.102 16.6415 17.2686 17.5228 16.0608C18.4043 14.8531 18.8451 13.4916 18.8451 11.9763C18.8451 10.461 18.4043 9.09946 17.5228 7.8918C16.6415 6.68396 15.4797 5.85063 14.0373 5.3918V3.8418C15.8988 4.34046 17.4155 5.3398 18.5873 6.8398C19.759 8.3398 20.3448 10.052 20.3448 11.9763C20.3448 13.9006 19.759 15.6128 18.5873 17.1128C17.4155 18.6128 15.8988 19.6121 14.0373 20.1108ZM3.65283 14.5013V9.5013H7.36433L11.6526 5.21305V18.7895L7.36433 14.5013H3.65283ZM14.0373 15.655V8.29755C14.7117 8.66421 15.2328 9.18055 15.6008 9.84655C15.9687 10.5125 16.1526 11.2308 16.1526 12.0013C16.1526 12.7615 15.967 13.4688 15.5958 14.1233C15.2247 14.7778 14.7052 15.2884 14.0373 15.655ZM10.1526 8.8513L8.00258 11.0013H5.15258V13.0013H8.00258L10.1526 15.1513V8.8513Z" fill="white"/>
</g>
</g>
</svg>
